# xmcd CD database file
#
# Track frame offsets:
#	150
#	20203
#	40558
#
# Disc length: 806 seconds
#
# Revision: 0
# Processed by: cddbd v1.5.1PL0 Copyright (c) Steve Scherf et al.
# Submitted via: CDex 1.51
#
DISCID=1c032403
DTITLE=キンヤ - BLAZE
DYEAR=2005
DGENRE=Pop
TTITLE0=BLAZE
TTITLE1=Refraction
TTITLE2=BLAZE instrumental
EXTD=YEAR: 2005
EXTT0=
EXTT1=
EXTT2=
PLAYORDER=
